<?xml version="1.0" standalone="no"?>
<!DOCTYPE svg PUBLIC "-//W3C//DTD SVG 20010904//EN"
 "http://www.w3.org/TR/2001/REC-SVG-20010904/DTD/svg10.dtd">
<svg version="1.0" xmlns="http://www.w3.org/2000/svg"
 width="500.000000pt" height="540.000000pt" viewBox="0 0 500.000000 540.000000"
 preserveAspectRatio="xMidYMid meet">

<g transform="translate(0.000000,540.000000) scale(0.100000,-0.100000)"
fill="#000000" stroke="none">
<path d="M2304 4859 c-45 -5 -99 -13 -120 -19 -33 -8 -34 -9 -7 -7 26 3 32 -1
36 -21 2 -13 -1 -25 -7 -27 -6 -2 -61 -14 -122 -28 -134 -31 -274 -82 -408
-149 -54 -27 -99 -48 -101 -46 -9 11 -26 50 -23 54 2 2 51 26 109 53 57 28
100 50 94 50 -22 1 -235 -110 -320 -166 -242 -160 -463 -386 -605 -618 -55
-90 -141 -264 -171 -348 l-23 -65 -54 -4 c-72 -6 -87 -24 -117 -140 -72 -287
-74 -640 -4 -948 27 -120 53 -150 126 -150 l48 0 24 -69 c62 -181 223 -450
370 -618 250 -285 613 -507 986 -603 665 -171 1371 19 1873 504 81 78 193 216
272 335 47 70 65 90 73 82 14 -14 24 -331 21 -628 l-3 -193 175 0 174 0 0
1811 0 1811 -172 -4 -173 -3 0 -385 c-1 -299 -4 -392 -14 -418 l-14 -34 -40
64 c-151 240 -409 496 -648 645 -356 222 -812 326 -1235 282z m-1031 -513
c-176 -153 -333 -343 -439 -531 -52 -93 -62 -104 -87 -105 l-27 0 44 88 c110
218 298 452 496 616 l45 37 18 -23 c19 -22 19 -22 -50 -82z m2984 -738 c-2
-29 -3 -6 -3 52 0 58 1 81 3 53 2 -29 2 -77 0 -105z m-800 40 c-3 -7 -5 -2 -5
12 0 14 2 19 5 13 2 -7 2 -19 0 -25z m-1452 -188 c44 -44 76 -80 72 -80 -5 0
-43 34 -85 75 -53 53 -82 75 -96 73 -53 -8 -17 -57 96 -133 l67 -45 74 53 c86
62 154 93 246 113 170 36 358 -5 492 -108 l46 -36 84 84 c73 73 88 84 114 82
23 -2 31 -9 33 -27 3 -19 -15 -42 -83 -111 l-86 -86 40 -61 c83 -123 120 -281
101 -431 -6 -42 -14 -78 -20 -80 -5 -2 -6 -10 -3 -17 6 -18 -44 -128 -88 -191
l-31 -46 87 -88 c68 -68 86 -92 83 -111 -2 -18 -10 -25 -33 -27 -26 -2 -41 9
-114 82 l-84 84 -58 -39 c-88 -60 -173 -93 -244 -92 -38 0 -53 -3 -40 -8 12
-5 -12 -8 -61 -8 -142 -2 -280 46 -394 134 l-55 42 -65 -59 c-36 -33 -80 -66
-97 -74 -36 -16 -42 -37 -15 -53 15 -9 15 -10 1 -11 -16 0 -29 19 -29 42 0 6
39 50 86 99 l86 87 -28 36 -28 35 -196 -6 c-177 -5 -197 -4 -203 10 -6 15 11
17 188 17 107 0 195 2 195 5 0 3 -9 23 -19 43 -31 60 -54 151 -60 237 l-6 80
-32 3 c-34 3 -32 6 -46 -63 -3 -11 -5 1 -6 28 l-1 47 44 0 44 0 17 76 c17 78
79 210 115 249 11 12 20 25 20 30 0 4 -101 5 -225 1 -197 -5 -225 -4 -225 9 0
13 28 15 205 15 113 0 205 3 205 7 0 4 -30 38 -66 74 -57 58 -66 71 -60 93 5
20 13 26 34 26 21 0 46 -19 107 -80z m2252 -122 c-2 -35 -3 -7 -3 62 0 69 1
97 3 63 2 -35 2 -91 0 -125z m-3343 36 c14 -14 16 -70 16 -473 0 -342 -3 -460
-12 -469 -16 -16 -50 -15 -74 2 -18 14 -19 32 -22 462 l-3 447 22 24 c26 27
51 29 73 7z m2233 -40 c-3 -3 -12 -4 -19 -1 -8 3 -5 6 6 6 11 1 17 -2 13 -5z
m-2590 -206 c-3 -8 -6 -5 -6 6 -1 11 2 17 5 13 3 -3 4 -12 1 -19z m3700 -60
c-3 -7 -5 -2 -5 12 0 14 2 19 5 13 2 -7 2 -19 0 -25z m-3710 -85 c-2 -16 -4
-5 -4 22 0 28 2 40 4 28 2 -13 2 -35 0 -50z m3710 -55 c-3 -8 -6 -5 -6 6 -1
11 2 17 5 13 3 -3 4 -12 1 -19z m-3710 -10 c-3 -8 -6 -5 -6 6 -1 11 2 17 5 13
3 -3 4 -12 1 -19z m3710 -690 c-1 -128 -2 -26 -2 227 0 253 1 358 2 233 2
-125 2 -332 0 -460z m-3710 545 c-2 -21 -4 -4 -4 37 0 41 2 58 4 38 2 -21 2
-55 0 -75z m10 -120 c-3 -10 -5 -2 -5 17 0 19 2 27 5 18 2 -10 2 -26 0 -35z
m2900 -140 c-2 -21 -4 -4 -4 37 0 41 2 58 4 38 2 -21 2 -55 0 -75z m-269 60
c-10 -2 -26 -2 -35 0 -10 3 -2 5 17 5 19 0 27 -2 18 -5z m-1178 -228 c-47 -47
-89 -85 -94 -85 -5 0 29 38 75 85 46 47 88 85 93 85 6 0 -27 -38 -74 -85z
m1817 -291 c21 -6 20 -9 -28 -80 -27 -41 -53 -74 -56 -74 -4 0 -17 9 -29 21
l-22 21 41 58 c42 59 53 65 94 54z m-2332 -294 c27 -27 47 -50 44 -50 -3 0
-27 23 -54 50 -27 28 -47 50 -44 50 3 0 27 -22 54 -50z m1810 -201 c9 -17 15
-32 13 -34 -21 -19 -261 -125 -283 -125 -6 0 -16 13 -22 29 -11 29 -10 30 46
51 31 12 94 41 141 65 47 24 86 44 87 44 1 1 10 -13 18 -30z"/>
<path d="M3064 3498 c-17 -18 -35 -46 -38 -62 -4 -17 -20 -46 -36 -67 -16 -20
-27 -39 -24 -42 10 -9 175 167 172 183 -6 28 -42 22 -74 -12z"/>
<path d="M2405 3440 c14 -5 4 -7 -30 -7 -94 2 -251 -99 -323 -209 -18 -26 -28
-52 -25 -61 5 -12 3 -14 -7 -8 -8 5 -11 4 -7 -3 10 -14 -3 -43 -15 -36 -6 4
-7 -2 -3 -16 5 -17 4 -21 -5 -15 -8 5 -11 4 -7 -2 4 -6 -1 -44 -10 -84 -23
-105 -8 -215 46 -324 22 -45 49 -90 61 -100 21 -19 21 -19 160 120 76 77 144
141 152 143 7 2 5 -2 -4 -8 -10 -6 -18 -20 -18 -31 0 -41 -34 -86 -133 -181
l-102 -97 29 -29 c103 -109 345 -158 505 -103 50 18 154 74 181 98 2 2 -59 68
-137 146 l-141 142 32 27 32 27 134 -134 c74 -74 132 -137 129 -139 -3 -3 -43
33 -88 79 -46 46 -88 82 -94 78 -6 -3 -7 -1 -3 5 3 6 -13 31 -38 55 -44 45
-44 45 -64 25 -20 -20 -20 -20 51 -68 40 -27 107 -80 149 -120 89 -82 95 -82
147 5 70 116 97 270 69 400 -14 67 -60 167 -99 216 l-32 41 -61 -60 c-95 -92
-185 -162 -217 -169 -16 -3 -32 -10 -35 -15 -6 -10 23 -48 37 -48 5 0 70 62
144 138 74 75 135 132 135 127 0 -6 -62 -72 -137 -147 l-138 -137 -32 29 -31
28 146 146 c130 128 145 147 132 160 -35 35 -136 85 -198 99 -70 17 -272 31
-237 17z m-65 -24 c-49 -19 -130 -61 -160 -85 l-25 -20 150 -151 c149 -149
150 -150 195 -150 69 -1 110 -43 110 -114 0 -66 -75 -121 -132 -95 -21 9 -21
9 4 4 42 -8 92 17 108 54 7 17 10 34 6 38 -3 3 -6 0 -6 -9 0 -28 -48 -61 -101
-68 -47 -6 -52 -5 -76 24 -33 39 -27 94 14 139 22 24 24 29 8 23 -11 -4 -16
-4 -12 0 10 10 -13 35 -26 27 -5 -3 -7 -2 -4 4 3 5 -46 61 -109 124 -136 134
-142 143 -118 170 21 24 170 99 193 98 9 0 0 -6 -19 -13z m-103 -238 c55 -57
106 -114 114 -128 14 -27 38 -90 34 -90 -2 0 -68 66 -148 146 l-145 146 -27
-41 c-31 -46 -47 -57 -20 -13 17 27 74 82 85 82 4 0 51 -46 107 -102z m-154
-225 c-7 -2 -21 -2 -30 0 -10 3 -4 5 12 5 17 0 24 -2 18 -5z m224 -310 c-77
-78 -143 -140 -146 -137 -3 2 57 65 133 140 138 134 138 135 120 156 l-19 22
27 -20 27 -19 -142 -142z m-210 120 c-3 -10 -5 -2 -5 17 0 19 2 27 5 18 2 -10
2 -26 0 -35z"/>
<path d="M3066 2675 c-9 -26 -7 -32 5 -12 6 10 9 21 6 23 -2 3 -7 -2 -11 -11z"/>
<path d="M3012 2572 c-63 -98 -175 -187 -300 -238 -32 -13 -52 -24 -45 -24 29
0 125 46 205 100 l88 59 30 -37 c17 -20 43 -63 58 -95 26 -56 55 -78 81 -62
22 13 9 32 -79 122 l-89 91 30 39 c30 37 63 93 56 93 -2 0 -18 -22 -35 -48z"/>
<path d="M2628 2303 c7 -3 16 -2 19 1 4 3 -2 6 -13 5 -11 0 -14 -3 -6 -6z"/>
<path d="M900 2939 c0 -410 -1 -437 -18 -452 -10 -10 -24 -17 -31 -17 -17 0
-9 -21 12 -34 12 -8 22 -8 35 0 16 10 17 45 20 464 1 296 -1 457 -8 464 -7 7
-10 -132 -10 -425z"/>
<path d="M2108 4823 c6 -2 18 -2 25 0 6 3 1 5 -13 5 -14 0 -19 -2 -12 -5z"/>
<path d="M1970 4795 c-99 -28 -202 -66 -196 -72 2 -2 21 3 42 12 22 9 93 32
159 50 66 19 111 34 100 34 -11 0 -58 -11 -105 -24z"/>
</g>
</svg>
